<svg xmlns="http://www.w3.org/2000/svg" xmlns:xlink="http://www.w3.org/1999/xlink" version="1.1" x="0px" y="0px" viewBox="0 0 1920 1080" style="enable-background:new 0 0 1920 1080;" xml:space="preserve">
<style xmlns="http://www.w3.org/2000/svg" type="text/css">
	.st0{opacity:0.1;}
	.st1{fill:#2A94F4;}
	.st2{fill:#0B4870;}
	.st3{fill:#0E538C;}
	.st4{fill:#CCE9FF;}
	.st5{opacity:0.35;}
	.st6{fill:#F7F7F7;}
	.st7{opacity:0.55;fill:#CCE9FF;}
	.st8{fill:#8a2be2;}
	.st9{fill:#E2C59C;}
	.st10{fill:#FFE3CA;}
	.st11{fill:#FCD2B1;}
	.st12{fill:#E9D6B8;}
	.st13{fill:#B6DBF2;}
</style>
<g xmlns="http://www.w3.org/2000/svg" id="Background">
	<g class="st0">
		<path class="st1" d="M1532.84,915.55c17.05-73-4.76-112.67-12.02-171.26c-8.87-71.56-13.28-122.26,35.42-175.44    c79.57-86.91,243.95-325.68-34.92-460.87c-99.95-48.45-218.98-24.8-317.99,11.61c-84.25,30.98-169.15-16.37-243.81-44.71    C867.8,40.05,768.87,13.07,669.62,3.09C465.23-17.48,346.25,66,258.95,214.77c-26.38,44.95-64.71,117.82-42.95,246.17    c29.37,173.23,164.82,281.45,371.48,344.22c47.31,14.37,96.63,20.82,144.62,32.7c49.86,12.34,98.26,30.56,143.87,54.17    c106.41,55.06,198.89,139.68,314.29,171.89c61.02,17.03,126.37,18.26,187.99,3.53C1455.2,1049.06,1514.84,992.6,1532.84,915.55z"/>
	</g>
	<g>
		<rect x="819.85" y="812.2" class="st2" width="289.08" height="77.76"/>
		<path class="st3" d="M1457.58,837.59H474.24c-5.18,0-9.39-4.2-9.39-9.39V126.02c0-5.18,4.2-9.39,9.39-9.39h983.34    c5.18,0,9.39,4.2,9.39,9.39V828.2C1466.97,833.39,1462.77,837.59,1457.58,837.59z"/>
		<path class="st4" d="M1430.16,768.42H498.61c-3.19,0-5.77-2.58-5.77-5.77V148.69c0-3.19,2.58-5.77,5.77-5.77h931.55    c3.19,0,5.77,2.58,5.77,5.77v613.96C1435.93,765.83,1433.35,768.42,1430.16,768.42z"/>
		<path class="st3" d="M1233.18,932.23H695.6v-41.7c0-4.04,3.28-7.32,7.32-7.32h522.94c4.04,0,7.32,3.28,7.32,7.32V932.23z"/>
		<g class="st5">
			<g>
				<g>
					<path class="st6" d="M1349.03,629.68H746.98c-15.97,0-28.91-12.95-28.91-28.91V215.04c0-15.97,12.95-28.91,28.91-28.91h602.06       c15.97,0,28.91,12.95,28.91,28.91v385.73C1377.95,616.73,1365,629.68,1349.03,629.68z"/>
				</g>
			</g>
		</g>
		<g>
			<g>
				<g>
					<g>
						<g>
							<path class="st7" d="M1173.74,727.79H571.69c-15.97,0-28.91-12.95-28.91-28.91V313.15c0-15.97,12.95-28.91,28.91-28.91         h602.05c15.97,0,28.91,12.95,28.91,28.91v385.73C1202.66,714.85,1189.71,727.79,1173.74,727.79z"/>
						</g>
					</g>
				</g>
			</g>
			<g>
				<g>
					<g>
						<path class="st6" d="M1187.13,710.52H585.07c-15.97,0-28.91-12.95-28.91-28.91V295.88c0-15.97,12.95-28.91,28.91-28.91h602.05        c15.97,0,28.91,12.95,28.91,28.91V681.6C1216.04,697.57,1203.1,710.52,1187.13,710.52z"/>
					</g>
				</g>
			</g>
			<path class="st8" d="M1187.13,266.96H585.07c-15.97,0-28.91,12.95-28.91,28.91v25.31h659.88v-25.31     C1216.04,279.91,1203.1,266.96,1187.13,266.96z"/>
		</g>
		<circle class="st4" cx="667.91" cy="506.01" r="92.58"/>
		<circle class="st4" cx="880.99" cy="506.01" r="92.58"/>
		<circle class="st4" cx="1094.08" cy="506.01" r="92.58"/>
	</g>
	<g>
		<polygon class="st7" points="736.21,570.71 672.97,526.81 671.4,603.77 696.67,590.88 712.55,622 726.8,614.73 710.93,583.61       "/>
		<polygon class="st6" points="739.58,565.99 676.35,522.08 674.77,599.05 700.05,586.15 715.92,617.27 730.18,610 714.3,578.88       "/>
	</g>
</g>
<g xmlns="http://www.w3.org/2000/svg" id="Objects">
	<rect x="1219.26" y="687.4" class="st8" width="179.73" height="247.42"/>
	<g>
		<g>
			<path class="st9" d="M1278.69,592.51c0,0-0.61,6.63-31.3,6.62c-30.68-0.01-75.21-7.98-75.21-7.98l71.24-6.92     C1243.41,584.24,1270.68,582.95,1278.69,592.51z"/>
			<path class="st9" d="M1200.7,594.94c-17.31-0.06-24.77,8.91-31.65,11.67c-6.87,2.77-13.78,7.01-13.73,6.93     c3.88-7.67,9.47-7.86,12.28-10.33c2.8-2.48,2.07-1.24-4.08-1.73c-3.51-0.28-9.69,6.1-14.14,9.63c-3.85,3.05-6.26,3.29-6.26,3.29     s4.5-6.45,10.24-11.65c6.92-6.26,15.46-11.5,17.49-12.32c3.7-1.49,15.28-1.86,23.53-0.7     C1203.67,591.05,1213.17,594.97,1200.7,594.94z"/>
			<path class="st9" d="M1171.77,590.79c0,0-13.26,3.45-15.59,5.25c-1.63,1.25-8.41,8.6-8.41,8.6s4.96-0.82,7.83-3.59     C1158.46,598.28,1171.77,590.79,1171.77,590.79z"/>
		</g>
		<path class="st1" d="M1253.58,579.15c0,0,33.51,2.19,31.2,22.78c-1.31,11.7-8.96,15.76-19.08,14.91    c-18.81-1.59-40.14-4.44-40.14-4.44l-9.51-32.01L1253.58,579.15z"/>
		<path class="st1" d="M1260.59,582l32.85-106c0,0,4.84-15.53,12.81-12.61c11.5,4.2,5.79,16.91,4.79,24.44    c-2.06,15.36-0.69,22.05-11.3,59.07c-6.55,22.83-12.21,49.14-17.92,64.14c-3.93,10.34-10.62-4.48-20.75-8.62    C1242.18,594.69,1260.59,582,1260.59,582z"/>
	</g>
	<path class="st2" d="M1269.43,402.5c4.24,12.25,17.47,18.55,29.55,14.06c12.08-4.49,18.43-18.06,14.19-30.31   c-4.23-12.25-17.46-18.55-29.54-14.06C1271.54,376.68,1265.19,390.25,1269.43,402.5z"/>
	<path class="st2" d="M1230.17,418.47c10.08,15.08,30.06,18.84,44.61,8.39l-2.08-17.7c14.56-10.45,18.18-31.15,8.1-46.23   l-6.85-10.24c-10.08-15.09-30.06-18.85-44.62-8.4l-6.59,4.74c-14.55,10.44-18.18,31.15-8.1,46.23L1230.17,418.47z"/>
	<path class="st10" d="M1213.86,370.74c1.7,2.48,3.64,4.91,5.78,7.24c14.38,15.63,33.58,21.56,45.92,15.14   c5.66,7.69,11.98,13.72,17.88,18.47c6.73,5.42,23.98,7.63,23.98,7.63c10.1,10.88-27.6,74.95-30.2,74.72   c-5.5-0.5-12.53-35.89-7.41-48.74c2.3-5.75,6.17-12.71,5.05-15.8c-3.91-10.84-8.09-11.74-14.99-14.56   c-11.41-3.15-20.46,3.5-20.46,3.5c-0.88,0.64-1.92,0.81-2.89,0.59c-1.74-1.42-3.31-3.13-4.64-5.12l-15.06-22.52   C1212.64,385.04,1211.8,377.46,1213.86,370.74z"/>
	<path class="st3" d="M1328.82,640.5c0,0-12.21,14.7-15.95,16.34c-4.99,2.2-20.27-2.43-20.27-2.43s-4.05-67.49-8.72-93.83   c-4.69-26.35-11.62-33.25-11.92-41.54c-0.46-13.25-11.53-18.61-9.7-29c1.82-10.38,5.13-47.27,6.25-42.35   c9.57,41.88,21.35,7.11,23.87,1.58C1293.77,446.24,1328.82,640.5,1328.82,640.5z"/>
	<path class="st1" d="M1273.23,435.16c0,0-14.81,16.33-13.79,22.69c1.02,6.35-6.37,26.5,0.95,54.39   c8.37,31.85,12.64,53.39,14.21,74.2c1.57,20.8-5.47,39.91-2.72,65.41c2.14,19.98,6.77,21.18,6.77,21.18s8.89,2.17,15.2-5.57   c6.32-7.74-3.15-75.84-6.3-92.88c-3.16-17.04-13.18-56.85-15.8-68.51c-3.25-14.48-2.72-29.08-2.5-33.39   c0.78-14.86,2.73-24.15,4.18-29.77C1273.68,441.95,1274.51,433.23,1273.23,435.16z"/>
	<polygon class="st11" points="1219.6,857.76 1227.93,923.94 1191.93,941.06 1171.94,945.42 1207.41,917.99 1195.81,858.28  "/>
	<path class="st2" d="M1217.23,931.13l-28.76,14.48l-25.51,6.04c0,0-0.31-2.07,0.54-3.19c3.21-4.19,21.06-13.53,21.06-13.53   s0.29,6.14,2.83,6.31c2.54,0.18,24.57-11.41,29.67-14.63c8.77-5.55,10.43-9.02,11.08-8.58   C1236.17,923.42,1217.23,931.13,1217.23,931.13z"/>
	<polygon class="st11" points="1132.72,765.72 1104.12,822.12 1064.56,820.1 1044.89,814.44 1088.57,807.04 1112.42,758.85  "/>
	<path class="st2" d="M1091.43,823.4l-35.47-0.53l-21.18-4.98c0,0,2.57-2.87,4.14-3.53c4.72-1.97,21.46-2.98,21.46-2.98   s-1.77,4.79,0.41,6.17c2.18,1.38,26.55,2.18,32.51,1.75c10.26-0.74,13.45-3.09,13.65-2.31   C1109.4,826.8,1091.43,823.4,1091.43,823.4z"/>
	<path class="st3" d="M1341.66,597.05l-21.34,9.62l0.09,29.34L1173.8,612.1c0,0-13.98-4.47-22.88,18.41   c-12.67,32.57-44.91,133.84-44.91,133.84l20.41,22.11l64.02-114.41c0,0,131.18,63.76,174.43,50c16.6-5.28,29.27-35.66,26.91-66.34   c-1.86-24.03-6.5-46.15-6.5-46.15L1341.66,597.05z"/>
	<path class="st2" d="M1323.1,721.3l-104.97-7.82l9.02,167.84l-30.95,1.02l-22.87-196.57c0,0,6.17-29.25,26.21-24.84   C1219.6,665.34,1268.11,703.85,1323.1,721.3z"/>
	<path class="st1" d="M1393.8,763.3c0,0-55.08-61.77-69.37-96.76c-17.07-41.77-15.59-94.25-18.74-111.6   c-5.79-31.9-12.81-93.98-14.15-101.65c-1.34-7.68,3.39-16.3,3.39-16.3s-3.61-23.21,6.8-20.72c14.81,3.55,29.63,11.81,34.75,14.17   c9.67,4.45,29.57,121.16,30.69,126.81c4.05,20.38,19.02,38.74,29.63,57.8c25.01,44.91,31.38,97.94,31.38,97.94   S1425.14,752.16,1393.8,763.3z"/>
	<g>
		<path class="st11" d="M1336.91,601.65c0,0-0.47,7.57-35.57,5.75c-35.11-1.81-86.34-13.58-86.34-13.58l81.26-3.74    C1296.26,590.07,1327.41,590.19,1336.91,601.65z"/>
		<path class="st11" d="M1242.52,597.95c-16.71-0.33-23.92,8.3-30.56,10.9c-6.63,2.59-13.3,6.62-13.26,6.55    c3.75-7.41,9.15-7.53,11.87-9.9c2.71-2.37,2.01-1.16-3.94-1.75c-3.38-0.33-9.35,5.8-13.66,9.18c-3.72,2.92-6.05,3.12-6.05,3.12    s4.35-6.24,9.9-11.21c6.69-6,14.94-10.99,16.89-11.76c3.58-1.39,14.75-1.58,22.71-0.31    C1245.4,594.2,1254.56,598.19,1242.52,597.95z"/>
		<path class="st12" d="M1214.6,593.45c0,0-12.8,3.16-15.05,4.89c-1.57,1.19-8.13,8.26-8.13,8.26s4.77-0.72,7.56-3.39    C1201.75,600.55,1214.6,593.45,1214.6,593.45z"/>
	</g>
	<path class="st1" d="M1325.73,580.1l-1.98-105.76c0,0,0.2-33,0.75-42.72c0.27-4.74,4.22-4.61,8.32-3.15   c5.83,2.07,10.59,6.39,13.43,11.88c6.85,13.24,19.95,45.99,20.32,103.54c0.34,52.2-2.56,79.44-26.59,77.28   c-22.43-2.02-47.84-5.43-47.84-5.43l-11.18-34.86L1325.73,580.1z"/>
	<g>
		<polygon class="st8" points="1320.41,636.01 1141.46,613.64 1141.9,609.83 1320.86,632.2   "/>
		<path class="st8" d="M1241.91,622.11c-0.34,2.95-2.66,5.09-5.15,4.78l-91.76-11.47c-2.5-0.31-5.66-2.63-7.84-10.5l-35.38-91.51    c0.43-3.72,3.51-5.62,5.93-4.72l93.81,14.7c2.43,0.93,4.23,3.18,5.2,7.26L1241.91,622.11z"/>
		<path class="st13" d="M1230.33,624.75l0.93,0.12l89.6,11.2c-3.42,1.37-8.92,1.85-14.99,1.09l-74.95-9.37l-0.92-0.12l-74.94-9.37    c-6.08-0.76-11.31-2.59-14.33-4.76L1230.33,624.75z"/>
	</g>
</g>
</svg>